<svg xmlns="http://www.w3.org/2000/svg" version="1.1" xmlns:xlink="http://www.w3.org/1999/xlink" viewBox="0 0 700 700" style="overflow: hidden; display: block;" width="700" height="700"><defs></defs><g id="two-0" transform="matrix(1 0 0 1 0 0)" opacity="1"><path transform="matrix(1 0 0 1 350 350)" id="two-76" d="M 191.304652 56.172114 C 201.692583 85.933683 235.122037 115.044523 225.931535 145.197381 C 218.610727 169.216011 178.568168 168.596851 163.484094 188.670703 C 143.128689 215.759632 161.531883 272.141262 130.582974 285.936828 C 99.295445 299.883335 61.273583 267.179309 35.217373 244.942213 C 8.263602 221.939113 13.176341 156.71531 -22.16821 154.183284 C -74.720547 150.41852 -75.82804 292.111855 -125.856988 275.588362 C -163.778569 263.063673 -104.212555 181.250262 -134.183329 154.855815 C -163.29585 129.217209 -224.527753 189.497536 -251.540299 161.655134 C -272.332924 140.223736 -258.993634 97.092894 -243.576428 71.520492 C -221.129217 34.287474 -134.232321 43.456744 -132.933774 0 C -131.851283 -36.226242 -232.216542 -30.417444 -221.442791 -65.021471 C -210.164805 -101.245044 -126.431519 -36.162953 -106.528711 -68.461845 C -83.99443 -105.031171 -183.940019 -149.776955 -161.542905 -186.43045 C -148.608502 -207.597957 -110.151472 -196.480692 -86.424342 -189.242911 C -60.594786 -181.363801 -46.211239 -133.517624 -20.281378 -141.060079 C 34.984002 -157.135624 -2.746856 -269.239128 43.614614 -303.346304 C 69.784678 -322.59908 112.955932 -325.452069 141.80542 -310.510559 C 171.44116 -295.161839 191.440741 -257.158211 193.994431 -223.881509 C 197.670116 -175.984268 117.93737 -132.469584 138.780856 -89.189042 C 151.118048 -63.571429 212.344487 -91.958039 221.488335 -65.034844 C 230.041308 -39.851422 178.27002 -26.232447 173.886319 -0.000001 C 170.687483 19.14211 184.909059 37.848649 191.304652 56.172114 Z " fill="hsl(70, 69%, 50%)" stroke="undefined" stroke-width="1" stroke-opacity="1" fill-opacity="1" visibility="visible" stroke-linecap="butt" stroke-linejoin="miter" stroke-miterlimit="4"></path></g></svg>